<svg width="308" height="33" viewBox="0 0 308 33" fill="none" xmlns="http://www.w3.org/2000/svg">
<path fill-rule="evenodd" clip-rule="evenodd" d="M197.633 18.4032H209.098V20.8746H197.633V18.4032ZM6.97768 3.41L5.9515 28.2189V28.6493C5.9515 30.7523 6.61875 31.1827 10.21 31.4215V32.5696C7.5936 32.3778 6.56742 32.3304 5.13054 32.3304C3.69427 32.3304 2.66809 32.3778 0 32.5696V31.4215C3.59167 31.1829 4.10458 30.8002 4.20696 28.2191L5.28469 4.74879V4.46211C5.28469 2.26279 4.56633 1.78475 1.02618 1.59408V0.398986C3.02685 0.541756 3.79648 0.590107 5.23317 0.590107C7.13183 0.590107 8.15784 0.541751 10.1076 0.350856L19.6507 24.5382L29.3477 0.350856C31.6567 0.541751 32.7342 0.590107 34.2733 0.590107C35.5558 0.590107 36.3768 0.541756 38.3265 0.398986V1.59408C34.8378 1.78475 34.068 2.26279 34.068 4.41398V4.74879L34.6325 28.2191C34.6838 30.8002 35.1455 31.1829 38.8398 31.4215V32.5696C35.6075 32.2823 34.3762 32.1867 32.4265 32.1867C30.4767 32.1867 29.2455 32.2823 26.0132 32.5696V31.4215C29.5017 31.2306 30.2717 30.7047 30.2717 28.4579V28.2189L29.8097 3.45789L21.3437 24.777L20.7283 26.3549L20.0099 28.1233L19.3429 29.9399L18.7785 31.5173H18.0088L17.445 29.9874L16.7263 28.1233L16.0082 26.2593L15.3922 24.5861L6.97768 3.41ZM45.5059 18.8499C46.0191 13.3529 47.9687 10.5323 51.2527 10.5323C54.5872 10.5323 56.2805 13.2094 56.5885 18.8499H45.5059ZM52.1759 31.3741C47.5069 31.3741 45.4549 28.028 45.4034 20.5707H60.693C60.5903 13.2094 57.3582 9.2895 51.3037 9.2895C45.1466 9.2895 41.2989 13.9267 41.2989 21.288C41.2989 28.6493 45.1466 32.9523 51.7654 32.9523C56.7935 32.9523 60.0773 30.0355 60.7445 25.1119H58.692C58.0762 29.175 55.8187 31.3741 52.1759 31.3741ZM63.7479 11.0584V10.1979C66.6721 9.95913 68.4167 9.67199 70.5204 9.09838C70.7769 10.8671 70.8794 11.6318 70.9822 13.0659V13.5917C72.1109 10.8671 74.3172 9.2895 76.9847 9.2895C79.5502 9.2895 81.449 10.8671 81.449 13.1615C81.449 14.5475 80.577 15.4561 79.2942 15.4561C78.1137 15.4561 77.191 14.7868 77.191 13.8309C77.191 13.7351 77.2417 13.5442 77.293 13.3529L77.3955 12.8746V12.4447C77.3955 11.7753 76.7797 11.2972 75.8562 11.2972C73.1884 11.2972 71.4952 14.3089 71.4952 19.041V29.0318C71.4952 31.0869 72.0084 31.4696 75.1377 31.6131V32.5694C72.3162 32.3301 71.2387 32.282 69.4429 32.282C67.5956 32.282 66.5184 32.3301 63.6964 32.5694V31.6131C66.8264 31.4696 67.3906 31.0869 67.3906 29.0318V14.1653V13.4005C67.3394 11.3449 67.0826 11.1061 64.4149 11.0584H63.7479ZM101.076 8.85982V16.7466H99.947C99.0235 12.5881 97.1255 10.5802 93.9949 10.5802C90.1474 10.5802 87.8894 14.4519 87.8894 21.2878C87.8894 27.9801 89.8909 31.3741 93.8409 31.3741C97.0225 31.3741 98.9202 29.2705 99.5367 25.0642H101.64C100.973 30.1787 98.0482 32.9521 93.4309 32.9521C87.4791 32.9521 83.4256 28.2668 83.4256 21.2878C83.4256 14.1653 87.5302 9.2895 93.5847 9.2895C95.791 9.2895 97.1762 9.81521 98.8185 11.2972L100.203 8.85982H101.076ZM109.501 18.8499C110.015 13.3529 111.964 10.5323 115.248 10.5323C118.583 10.5323 120.276 13.2094 120.584 18.8499H109.501ZM116.172 31.3741C111.503 31.3741 109.45 28.028 109.399 20.5707H124.688C124.586 13.2094 121.354 9.2895 115.3 9.2895C109.142 9.2895 105.294 13.9267 105.294 21.288C105.294 28.6493 109.142 32.9523 115.761 32.9523C120.789 32.9523 124.073 30.0355 124.74 25.1119H122.687C122.072 29.175 119.815 31.3741 116.172 31.3741ZM138.898 31.6603C135.204 31.6603 133.254 28.0757 133.254 21.2399C133.254 14.3087 135.049 10.915 138.744 10.915C142.54 10.915 144.49 14.5475 144.49 21.5749C144.49 28.2189 142.591 31.6603 138.898 31.6603ZM148.543 27.5976V0C145.978 0.637312 143.669 1.01979 140.796 1.30694V2.11957C144.028 2.11957 144.438 2.45391 144.438 4.93969V13.3052C142.54 10.4369 141.052 9.57596 138.282 9.57596C132.792 9.57596 128.944 14.4043 128.944 21.2878C128.944 28.1712 132.843 32.9998 138.436 32.9998C141.36 32.9998 143.361 31.7565 144.798 29.0794C145.003 30.8958 145.003 31.0867 145.517 32.904C147.62 32.2818 148.492 32.0909 151.519 31.7565L152.289 31.6605V30.8479C148.851 30.7526 148.543 30.5135 148.543 27.5976ZM158.439 18.8499C158.952 13.3529 160.902 10.5323 164.185 10.5323C167.521 10.5323 169.213 13.2094 169.521 18.8499H158.439ZM165.11 31.3741C160.44 31.3741 158.388 28.028 158.336 20.5707H173.626C173.524 13.2094 170.291 9.2895 164.237 9.2895C158.08 9.2895 154.232 13.9267 154.232 21.288C154.232 28.6493 158.08 32.9523 164.698 32.9523C169.727 32.9523 173.01 30.0355 173.677 25.1119H171.625C171.01 29.175 168.752 31.3741 165.11 31.3741ZM177.981 33V25.0163L179.109 24.9686C180.033 29.3189 182.188 31.4215 185.78 31.4215C188.807 31.4215 191.064 29.5572 191.064 27.1194C191.064 25.4941 190.09 24.3948 187.576 23.3429L185.625 22.5303L183.265 21.5268C179.52 19.9015 178.34 18.563 178.34 15.7907C178.34 12.0143 181.521 9.43273 186.036 9.43273C188.038 9.43273 189.525 9.86333 191.27 10.9624L192.142 9.00258H193.066V16.4115H191.885C191.423 12.5879 189.73 10.7715 186.498 10.7715C183.779 10.7715 181.676 12.4921 181.676 14.7391C181.676 16.651 182.444 17.2723 187.114 19.1842L189.268 20.0452C193.168 21.6221 194.553 23.1518 194.553 25.9721C194.553 29.9874 191.116 32.8559 186.293 32.8559C183.933 32.8559 182.085 32.2818 180.136 30.8479L178.904 32.9998L177.981 33ZM223.084 16.5078C225.803 16.5078 227.342 16.9377 228.522 18.0373C229.702 19.1366 230.369 21.192 230.369 23.4866C230.369 28.267 227.803 30.9439 223.237 30.9439H221.39C218.671 30.9439 218.209 30.5614 218.209 28.4579V16.5078H223.084ZM218.209 2.02399H222.57C226.88 2.02399 228.778 3.98361 228.778 8.42944C228.778 10.6278 228.214 12.2059 227.085 13.4484C225.956 14.6435 224.571 15.0258 221.698 15.0258H218.209V2.02399ZM233.345 8.33364C233.345 5.84787 232.216 3.64879 230.267 2.26256C228.522 1.06791 226.521 0.541515 223.186 0.541515H209.692V1.73709C213.386 1.92821 213.899 2.31092 213.899 4.89179V28.0757C213.899 30.657 213.488 30.9914 209.692 31.2783V32.4255H222.672C226.47 32.4255 228.522 31.9951 230.676 30.7523C233.242 29.2229 234.935 26.3067 234.935 23.2955C234.935 20.7139 233.756 18.3718 231.754 16.9377C230.676 16.1732 229.548 15.7426 227.701 15.408C231.395 14.1176 233.345 11.6797 233.345 8.33364ZM243.31 18.8499C243.823 13.3529 245.774 10.5323 249.056 10.5323C252.392 10.5323 254.085 13.2094 254.393 18.8499H243.31ZM249.98 31.3741C245.311 31.3741 243.258 28.028 243.207 20.5707H258.496C258.395 13.2094 255.162 9.2895 249.108 9.2895C242.95 9.2895 239.103 13.9267 239.103 21.288C239.103 28.6493 242.95 32.9523 249.569 32.9523C254.598 32.9523 257.882 30.0355 258.548 25.1119H256.495C255.881 29.175 253.622 31.3741 249.98 31.3741ZM261.214 11.2496V10.4372C264.19 10.0547 265.935 9.67221 267.985 9.00304C268.243 10.1021 268.396 11.3451 268.5 13.1615C270.345 10.5804 272.449 9.43319 275.426 9.43319C278.503 9.43319 281.172 10.9152 282.199 13.2571C282.712 14.4043 282.968 15.7428 282.968 17.5592V29.0318C282.968 31.0869 283.481 31.4696 286.61 31.6131V32.5696C283.892 32.3302 282.865 32.282 281.019 32.282C279.119 32.282 278.094 32.3302 275.426 32.5696V31.6131C278.195 31.5173 278.863 31.0393 278.863 29.1273V17.4162C278.863 13.2571 277.53 11.5844 274.246 11.5844C270.757 11.5844 268.911 13.6398 268.911 17.5592V29.1273C268.911 31.0393 269.576 31.5173 272.245 31.6131V32.5696C269.576 32.3302 268.551 32.282 266.703 32.282C264.907 32.282 263.83 32.3302 261.162 32.5696V31.6131C264.291 31.4696 264.804 31.0869 264.804 29.0318V14.2608V13.5442C264.754 11.5844 264.446 11.2972 261.881 11.2972C261.726 11.2972 261.47 11.2496 261.214 11.2496ZM288.606 32.4255L302.51 11.1059H296.197C292.864 11.1059 292.043 11.7753 290.195 16.0772H289.17L290.35 9.86333H308L294.044 31.1827H300.046C303.538 31.1827 304.972 29.8918 306.512 25.5422H307.591L306.255 32.4255H288.606Z" fill="white"/>
</svg>
